<svg width="1440" height="94" viewBox="0 0 1440 94" fill="none" xmlns="http://www.w3.org/2000/svg">
<path d="M-34.8149 72L-26.4629 4.8H-15.0389L-18.5909 33.216H15.4891L19.0411 4.8H30.3691L22.1131 72H10.7851L14.2411 43.488H-19.8389L-23.2949 72H-34.8149ZM55.3459 72.768C48.0499 72.768 42.1619 70.176 37.6819 64.992C33.2659 59.808 31.5059 53.632 32.4019 46.464C33.2979 39.168 36.6259 32.992 42.3859 27.936C48.1459 22.816 54.6099 20.256 61.7779 20.256C68.1779 20.256 73.5219 22.336 77.8099 26.496C82.0979 30.592 84.4019 35.744 84.7219 41.952C84.9139 45.152 84.5939 48.032 83.7619 50.592H42.8659C43.0579 54.368 44.4019 57.376 46.8979 59.616C49.4579 61.792 52.6899 62.88 56.5939 62.88C62.4819 62.88 67.4419 60.8 71.4739 56.64L80.8819 59.232C78.3219 63.328 74.6419 66.624 69.8419 69.12C65.1059 71.552 60.2739 72.768 55.3459 72.768ZM43.9219 42.048H73.9699C73.7139 38.656 72.3699 35.808 69.9379 33.504C67.5059 31.2 64.3699 30.048 60.5299 30.048C56.6259 30.048 53.1379 31.232 50.0659 33.6C46.9939 35.904 44.9459 38.72 43.9219 42.048ZM105.043 72.768C102.803 72.768 100.659 72.512 98.6114 72C96.6274 71.488 94.7394 70.688 92.9474 69.6C91.1554 68.448 89.7794 66.816 88.8194 64.704C87.9234 62.528 87.6354 60 87.9554 57.12C88.5314 51.936 90.8034 48 94.7714 45.312C98.7394 42.56 104.115 41.184 110.899 41.184H126.355L126.739 38.112C127.123 35.296 126.227 33.184 124.051 31.776C121.939 30.304 119.059 29.568 115.411 29.568C108.499 29.568 104.147 31.872 102.355 36.48L91.7954 36.672C92.5634 31.68 95.2834 27.712 99.9554 24.768C104.627 21.76 110.099 20.256 116.371 20.256C122.707 20.256 127.923 21.792 132.019 24.864C136.179 27.936 137.971 31.904 137.395 36.768L133.075 72H122.611L123.475 64.32C121.811 66.368 119.379 68.288 116.179 70.08C113.043 71.872 109.331 72.768 105.043 72.768ZM106.963 63.648C111.187 63.648 115.187 62.208 118.963 59.328C122.739 56.448 124.883 53.056 125.395 49.152H111.859C107.699 49.152 104.499 49.952 102.259 51.552C100.083 53.088 98.9634 55.04 98.8994 57.408C98.8354 59.584 99.6034 61.184 101.203 62.208C102.803 63.168 104.723 63.648 106.963 63.648ZM141.149 72L149.405 4.8H160.445L152.189 72H141.149ZM194.792 71.616C186.6 73.792 180.136 73.472 175.4 70.656C170.728 67.84 168.84 62.816 169.736 55.584L172.904 30.624H163.304L164.456 21.12H174.056L175.688 8.544H186.536L185 21.12H200.552L199.4 30.624H183.848L180.68 55.488C180.296 58.624 181.352 60.736 183.848 61.824C186.344 62.912 190.408 62.624 196.04 60.96L194.792 71.616ZM201.464 72L209.816 4.8H220.856L217.976 27.84C222.456 22.784 228.056 20.256 234.776 20.256C240.6 20.256 245.368 22.144 249.08 25.92C252.792 29.632 254.264 34.592 253.496 40.8L249.752 72H238.712L242.168 43.776C242.68 39.68 241.88 36.448 239.768 34.08C237.656 31.712 234.84 30.528 231.32 30.528C227.288 30.528 223.8 32 220.856 34.944C217.976 37.824 216.28 41.44 215.768 45.792L212.6 72H201.464ZM314.466 72.576C304.994 72.576 297.346 69.216 291.522 62.496C285.698 55.776 283.362 47.712 284.514 38.304C285.73 28.768 290.05 20.672 297.474 14.016C304.962 7.296 313.442 3.936 322.914 3.936C329.698 3.936 335.554 5.824 340.482 9.6C345.474 13.312 348.994 18.272 351.042 24.48L339.714 27.648C338.306 23.68 336.034 20.544 332.898 18.24C329.826 15.936 326.05 14.784 321.57 14.784C315.106 14.784 309.41 17.056 304.482 21.6C299.618 26.144 296.77 31.712 295.938 38.304C295.17 44.832 296.642 50.368 300.354 54.912C304.13 59.392 309.282 61.632 315.81 61.632C320.29 61.632 324.322 60.544 327.906 58.368C331.554 56.128 334.53 53.056 336.834 49.152L347.586 52.128C344.13 58.272 339.458 63.232 333.57 67.008C327.682 70.72 321.314 72.576 314.466 72.576ZM368.481 72.768C366.241 72.768 364.097 72.512 362.049 72C360.065 71.488 358.177 70.688 356.385 69.6C354.593 68.448 353.217 66.816 352.257 64.704C351.361 62.528 351.073 60 351.393 57.12C351.969 51.936 354.241 48 358.209 45.312C362.177 42.56 367.553 41.184 374.337 41.184H389.793L390.177 38.112C390.561 35.296 389.665 33.184 387.489 31.776C385.377 30.304 382.497 29.568 378.849 29.568C371.937 29.568 367.585 31.872 365.793 36.48L355.233 36.672C356.001 31.68 358.721 27.712 363.393 24.768C368.065 21.76 373.537 20.256 379.809 20.256C386.145 20.256 391.361 21.792 395.457 24.864C399.617 27.936 401.409 31.904 400.833 36.768L396.513 72H386.049L386.913 64.32C385.249 66.368 382.817 68.288 379.617 70.08C376.481 71.872 372.769 72.768 368.481 72.768ZM370.401 63.648C374.625 63.648 378.625 62.208 382.401 59.328C386.177 56.448 388.321 53.056 388.833 49.152H375.297C371.137 49.152 367.937 49.952 365.697 51.552C363.521 53.088 362.401 55.04 362.337 57.408C362.273 59.584 363.041 61.184 364.641 62.208C366.241 63.168 368.161 63.648 370.401 63.648ZM404.768 72L411.104 21.12H422.144L421.088 29.472C423.136 26.272 425.92 23.872 429.44 22.272C432.96 20.608 437.056 20.16 441.728 20.928L440.288 32.64C435.296 31.04 430.656 31.552 426.368 34.176C422.144 36.8 419.712 40.8 419.072 46.176L415.904 72H404.768ZM462.596 72.768C455.3 72.768 449.412 70.176 444.932 64.992C440.516 59.808 438.756 53.632 439.652 46.464C440.548 39.168 443.876 32.992 449.636 27.936C455.396 22.816 461.86 20.256 469.028 20.256C475.428 20.256 480.772 22.336 485.06 26.496C489.348 30.592 491.652 35.744 491.972 41.952C492.164 45.152 491.844 48.032 491.012 50.592H450.116C450.308 54.368 451.652 57.376 454.148 59.616C456.708 61.792 459.94 62.88 463.844 62.88C469.732 62.88 474.692 60.8 478.724 56.64L488.132 59.232C485.572 63.328 481.892 66.624 477.092 69.12C472.356 71.552 467.524 72.768 462.596 72.768ZM451.172 42.048H481.22C480.964 38.656 479.62 35.808 477.188 33.504C474.756 31.2 471.62 30.048 467.78 30.048C463.876 30.048 460.388 31.232 457.316 33.6C454.244 35.904 452.196 38.72 451.172 42.048ZM526.715 72L531.611 30.624H522.107L523.259 21.12H532.763L532.955 19.392C533.787 13.312 536.859 8.736 542.171 5.664C547.547 2.592 554.171 2.08 562.043 4.128L560.987 12.576C555.867 11.168 551.835 11.168 548.891 12.576C546.011 13.92 544.379 16.224 543.995 19.488L543.803 21.12H559.547L558.395 30.624H542.651L537.659 72H526.715ZM581.466 72.768C574.234 72.768 568.378 70.176 563.898 64.992C559.418 59.808 557.658 53.632 558.618 46.464C559.514 39.232 562.81 33.056 568.506 27.936C574.202 22.816 580.666 20.256 587.898 20.256C595.13 20.256 600.986 22.848 605.466 28.032C609.946 33.152 611.738 39.296 610.842 46.464C609.946 53.696 606.618 59.904 600.858 65.088C595.098 70.208 588.634 72.768 581.466 72.768ZM572.058 57.888C574.746 61.024 578.298 62.592 582.714 62.592C587.13 62.592 591.066 61.024 594.522 57.888C597.978 54.688 599.994 50.88 600.57 46.464C601.082 42.048 599.994 38.272 597.306 35.136C594.618 31.936 591.066 30.336 586.65 30.336C582.234 30.336 578.298 31.936 574.842 35.136C571.386 38.272 569.402 42.048 568.89 46.464C568.314 50.88 569.37 54.688 572.058 57.888ZM613.205 72L619.541 21.12H630.581L629.525 29.472C631.573 26.272 634.357 23.872 637.877 22.272C641.397 20.608 645.493 20.16 650.165 20.928L648.725 32.64C643.733 31.04 639.093 31.552 634.805 34.176C630.581 36.8 628.149 40.8 627.509 46.176L624.341 72H613.205ZM731.968 62.688C724.48 69.408 716 72.768 706.528 72.768C697.056 72.768 689.408 69.408 683.584 62.688C677.76 55.968 675.424 47.872 676.576 38.4C677.728 28.928 682.048 20.832 689.536 14.112C697.024 7.392 705.504 4.032 714.976 4.032C724.384 4.032 731.968 7.392 737.728 14.112C743.552 20.832 745.92 28.928 744.832 38.4C743.744 47.872 739.456 55.968 731.968 62.688ZM692.416 55.2C696.192 59.744 701.312 62.016 707.776 62.016C714.24 62.016 719.904 59.744 724.768 55.2C729.696 50.592 732.576 44.992 733.408 38.4C734.24 31.872 732.768 26.304 728.992 21.696C725.216 17.088 720.096 14.784 713.632 14.784C707.232 14.784 701.568 17.088 696.64 21.696C691.712 26.24 688.832 31.808 688 38.4C687.168 44.992 688.64 50.592 692.416 55.2ZM747.08 72L753.416 21.12H764.456L763.592 27.84C768.2 22.784 773.8 20.256 780.392 20.256C786.216 20.256 790.984 22.144 794.696 25.92C798.472 29.632 799.976 34.592 799.208 40.8L795.368 72H784.328L787.784 43.776C788.296 39.68 787.496 36.448 785.384 34.08C783.272 31.712 780.488 30.528 777.032 30.528C773 30.528 769.512 32 766.568 34.944C763.624 37.824 761.896 41.44 761.384 45.792L758.216 72H747.08ZM827.127 72.768C819.831 72.768 813.943 70.176 809.463 64.992C805.047 59.808 803.287 53.632 804.183 46.464C805.079 39.168 808.407 32.992 814.167 27.936C819.927 22.816 826.391 20.256 833.559 20.256C839.959 20.256 845.303 22.336 849.591 26.496C853.879 30.592 856.183 35.744 856.503 41.952C856.695 45.152 856.375 48.032 855.543 50.592H814.647C814.839 54.368 816.183 57.376 818.679 59.616C821.239 61.792 824.471 62.88 828.375 62.88C834.263 62.88 839.223 60.8 843.255 56.64L852.663 59.232C850.103 63.328 846.423 66.624 841.623 69.12C836.887 71.552 832.055 72.768 827.127 72.768ZM815.703 42.048H845.751C845.495 38.656 844.151 35.808 841.719 33.504C839.287 31.2 836.151 30.048 832.311 30.048C828.407 30.048 824.919 31.232 821.847 33.6C818.775 35.904 816.727 38.72 815.703 42.048Z" fill="#112D44" fill-opacity="0.12"/>
<path d="M982.718 72L991.026 5.15555H1002.39L998.856 33.4212H1032.76L1036.29 5.15555H1047.56L1039.35 72H1028.08L1031.51 43.6389H997.615L994.177 72H982.718ZM1072.39 72.7639C1065.13 72.7639 1059.28 70.1857 1054.82 65.0291C1050.43 59.8725 1048.68 53.7292 1049.57 46.5991C1050.46 39.3417 1053.77 33.1984 1059.5 28.1691C1065.23 23.0762 1071.66 20.5298 1078.79 20.5298C1085.16 20.5298 1090.47 22.5988 1094.74 26.7368C1099 30.8111 1101.29 35.9358 1101.61 42.111C1101.8 45.2941 1101.48 48.1588 1100.66 50.7053H1059.98C1060.17 54.4613 1061.51 57.4534 1063.99 59.6815C1066.53 61.846 1069.75 62.9283 1073.63 62.9283C1079.49 62.9283 1084.42 60.8593 1088.43 56.7213L1097.79 59.2996C1095.25 63.3739 1091.59 66.6524 1086.81 69.1352C1082.1 71.5544 1077.29 72.7639 1072.39 72.7639ZM1061.03 42.2065H1090.92C1090.66 38.8324 1089.33 35.9995 1086.91 33.7077C1084.49 31.4159 1081.37 30.27 1077.55 30.27C1073.66 30.27 1070.2 31.4477 1067.14 33.8032C1064.08 36.095 1062.05 38.8961 1061.03 42.2065ZM1121.82 72.7639C1119.59 72.7639 1117.45 72.5093 1115.42 72C1113.44 71.4907 1111.57 70.6949 1109.78 69.6127C1108 68.4668 1106.63 66.8434 1105.68 64.7426C1104.79 62.5781 1104.5 60.0635 1104.82 57.1987C1105.39 52.0422 1107.65 48.127 1111.6 45.4532C1115.54 42.7158 1120.89 41.347 1127.64 41.347H1143.01L1143.4 38.2913C1143.78 35.4902 1142.89 33.3894 1140.72 31.9888C1138.62 30.5246 1135.76 29.7925 1132.13 29.7925C1125.25 29.7925 1120.92 32.0843 1119.14 36.6679L1108.64 36.8589C1109.4 31.8933 1112.11 27.9463 1116.75 25.0179C1121.4 22.0258 1126.84 20.5298 1133.08 20.5298C1139.39 20.5298 1144.57 22.0576 1148.65 25.1134C1152.79 28.1691 1154.57 32.1161 1154 36.9544L1149.7 72H1139.29L1140.15 64.3606C1138.49 66.3978 1136.08 68.3076 1132.89 70.0902C1129.77 71.8727 1126.08 72.7639 1121.82 72.7639ZM1123.73 63.6922C1127.93 63.6922 1131.91 62.2598 1135.66 59.395C1139.42 56.5303 1141.55 53.1562 1142.06 49.2729H1128.6C1124.46 49.2729 1121.27 50.0687 1119.05 51.6602C1116.88 53.1881 1115.77 55.1297 1115.7 57.4852C1115.64 59.6497 1116.4 61.2412 1118 62.2598C1119.59 63.2147 1121.5 63.6922 1123.73 63.6922ZM1157.72 72L1165.93 5.15555H1176.91L1168.7 72H1157.72ZM1211.07 71.618C1202.92 73.7825 1196.49 73.4642 1191.78 70.6631C1187.13 67.862 1185.25 62.8646 1186.14 55.6709L1189.3 30.8429H1179.75L1180.89 21.3892H1190.44L1192.06 8.87974H1202.86L1201.33 21.3892H1216.8L1215.65 30.8429H1200.18L1197.03 55.5754C1196.65 58.6948 1197.7 60.7956 1200.18 61.8778C1202.66 62.9601 1206.71 62.6736 1212.31 61.0184L1211.07 71.618ZM1217.69 72L1226 5.15555H1236.98L1234.12 28.0736C1238.58 23.0444 1244.15 20.5298 1250.83 20.5298C1256.62 20.5298 1261.37 22.4078 1265.06 26.1638C1268.75 29.8562 1270.21 34.7899 1269.45 40.9651L1265.73 72H1254.75L1258.18 43.9253C1258.69 39.851 1257.9 36.6361 1255.8 34.2806C1253.69 31.9252 1250.89 30.7474 1247.39 30.7474C1243.38 30.7474 1239.91 32.2116 1236.98 35.1401C1234.12 38.0048 1232.43 41.6017 1231.92 45.9307L1228.77 72H1217.69ZM1330.08 72.573C1320.65 72.573 1313.05 69.2307 1307.25 62.5463C1301.46 55.8618 1299.14 47.8405 1300.28 38.4823C1301.49 28.9967 1305.79 20.9436 1313.17 14.3228C1320.62 7.63834 1329.06 4.29612 1338.48 4.29612C1345.23 4.29612 1351.05 6.17413 1355.95 9.93015C1360.92 13.6225 1364.42 18.5563 1366.46 24.7314L1355.19 27.8827C1353.79 23.9357 1351.53 20.8162 1348.41 18.5244C1345.36 16.2326 1341.6 15.0867 1337.14 15.0867C1330.71 15.0867 1325.05 17.3467 1320.15 21.8667C1315.31 26.3866 1312.47 31.9252 1311.65 38.4823C1310.88 44.9757 1312.35 50.4825 1316.04 55.0024C1319.8 59.4587 1324.92 61.6869 1331.41 61.6869C1335.87 61.6869 1339.88 60.6046 1343.45 58.4401C1347.07 56.212 1350.03 53.1562 1352.33 49.2729L1363.02 52.2331C1359.58 58.3446 1354.94 63.2784 1349.08 67.0344C1343.22 70.7268 1336.89 72.573 1330.08 72.573ZM1383.8 72.7639C1381.57 72.7639 1379.43 72.5093 1377.4 72C1375.42 71.4907 1373.55 70.6949 1371.76 69.6127C1369.98 68.4668 1368.61 66.8434 1367.66 64.7426C1366.77 62.5781 1366.48 60.0635 1366.8 57.1987C1367.37 52.0422 1369.63 48.127 1373.58 45.4532C1377.52 42.7158 1382.87 41.347 1389.62 41.347H1404.99L1405.38 38.2913C1405.76 35.4902 1404.87 33.3894 1402.7 31.9888C1400.6 30.5246 1397.74 29.7925 1394.11 29.7925C1387.23 29.7925 1382.9 32.0843 1381.12 36.6679L1370.62 36.8589C1371.38 31.8933 1374.09 27.9463 1378.73 25.0179C1383.38 22.0258 1388.82 20.5298 1395.06 20.5298C1401.37 20.5298 1406.55 22.0576 1410.63 25.1134C1414.77 28.1691 1416.55 32.1161 1415.98 36.9544L1411.68 72H1401.27L1402.13 64.3606C1400.47 66.3978 1398.06 68.3076 1394.87 70.0902C1391.75 71.8727 1388.06 72.7639 1383.8 72.7639ZM1385.71 63.6922C1389.91 63.6922 1393.89 62.2598 1397.64 59.395C1401.4 56.5303 1403.53 53.1562 1404.04 49.2729H1390.58C1386.44 49.2729 1383.25 50.0687 1381.03 51.6602C1378.86 53.1881 1377.75 55.1297 1377.68 57.4852C1377.62 59.6497 1378.38 61.2412 1379.98 62.2598C1381.57 63.2147 1383.48 63.6922 1385.71 63.6922ZM1419.88 72L1426.18 21.3892H1437.16L1436.11 29.697C1438.15 26.5139 1440.92 24.1266 1444.42 22.5351C1447.92 20.8799 1452 20.4343 1456.64 21.1982L1455.21 32.8483C1450.25 31.2567 1445.63 31.766 1441.37 34.3761C1437.16 36.9862 1434.74 40.9651 1434.11 46.3126L1430.96 72H1419.88ZM1477.39 72.7639C1470.13 72.7639 1464.28 70.1857 1459.82 65.0291C1455.43 59.8725 1453.68 53.7292 1454.57 46.5991C1455.46 39.3417 1458.77 33.1984 1464.5 28.1691C1470.23 23.0762 1476.66 20.5298 1483.79 20.5298C1490.16 20.5298 1495.47 22.5988 1499.74 26.7368C1504 30.8111 1506.29 35.9358 1506.61 42.111C1506.8 45.2941 1506.48 48.1588 1505.66 50.7053H1464.98C1465.17 54.4613 1466.51 57.4534 1468.99 59.6815C1471.53 61.846 1474.75 62.9283 1478.63 62.9283C1484.49 62.9283 1489.42 60.8593 1493.43 56.7213L1502.79 59.2996C1500.25 63.3739 1496.59 66.6524 1491.81 69.1352C1487.1 71.5544 1482.29 72.7639 1477.39 72.7639ZM1466.03 42.2065H1495.92C1495.66 38.8324 1494.33 35.9995 1491.91 33.7077C1489.49 31.4159 1486.37 30.27 1482.55 30.27C1478.66 30.27 1475.2 31.4477 1472.14 33.8032C1469.08 36.095 1467.05 38.8961 1466.03 42.2065ZM1541.15 72L1546.02 30.8429H1536.57L1537.71 21.3892H1547.17L1547.36 19.6703C1548.19 13.6225 1551.24 9.07073 1556.52 6.01498C1561.87 2.95923 1568.46 2.44994 1576.29 4.48711L1575.24 12.8904C1570.15 11.4899 1566.14 11.4899 1563.21 12.8904C1560.34 14.2273 1558.72 16.5191 1558.34 19.7658L1558.15 21.3892H1573.81L1572.66 30.8429H1557L1552.04 72H1541.15ZM1595.6 72.7639C1588.41 72.7639 1582.58 70.1857 1578.13 65.0291C1573.67 59.8725 1571.92 53.7292 1572.87 46.5991C1573.77 39.4054 1577.04 33.2621 1582.71 28.1691C1588.38 23.0762 1594.81 20.5298 1602 20.5298C1609.19 20.5298 1615.02 23.1081 1619.47 28.2646C1623.93 33.3575 1625.71 39.469 1624.82 46.5991C1623.93 53.7928 1620.62 59.968 1614.89 65.1246C1609.16 70.2175 1602.73 72.7639 1595.6 72.7639ZM1586.24 57.9627C1588.92 61.0821 1592.45 62.6418 1596.84 62.6418C1601.24 62.6418 1605.15 61.0821 1608.59 57.9627C1612.03 54.7796 1614.03 50.9917 1614.6 46.5991C1615.11 42.2065 1614.03 38.4505 1611.36 35.331C1608.68 32.148 1605.15 30.5564 1600.76 30.5564C1596.37 30.5564 1592.45 32.148 1589.01 35.331C1585.57 38.4505 1583.6 42.2065 1583.09 46.5991C1582.52 50.9917 1583.57 54.7796 1586.24 57.9627ZM1627.16 72L1633.46 21.3892H1644.45L1643.4 29.697C1645.43 26.5139 1648.2 24.1266 1651.7 22.5351C1655.2 20.8799 1659.28 20.4343 1663.93 21.1982L1662.49 32.8483C1657.53 31.2567 1652.91 31.766 1648.65 34.3761C1644.45 36.9862 1642.03 40.9651 1641.39 46.3126L1638.24 72H1627.16ZM1685.69 72L1717.77 5.15555H1735.82L1750.91 72H1739.16L1735.82 57.3897H1704.6L1697.53 72H1685.69ZM1709.27 47.0766H1733.72L1725.99 11.649L1709.27 47.0766ZM1756.67 72L1764.88 5.15555H1775.86L1767.65 72H1756.67ZM1776.11 72L1784.33 5.15555H1795.31L1787.1 72H1776.11Z" fill="#112D44" fill-opacity="0.12"/>
</svg>